<?xml version="1.0" standalone="no"?>
<!DOCTYPE svg PUBLIC "-//W3C//DTD SVG 20010904//EN"
 "http://www.w3.org/TR/2001/REC-SVG-20010904/DTD/svg10.dtd">
<svg version="1.0" xmlns="http://www.w3.org/2000/svg"
 width="3705.000000pt" height="3705.000000pt" viewBox="0 0 3705.000000 3705.000000"
 preserveAspectRatio="xMidYMid meet">

<g transform="translate(0.000000,3705.000000) scale(0.100000,-0.100000)"
fill="#1862B8" stroke="none">
<path d="M19225 28170 c-2018 -9 -2158 -11 -2302 -45 -359 -85 -775 -333
-1068 -636 -158 -163 -222 -257 -341 -494 -116 -233 -143 -316 -169 -520 -36
-286 -38 -408 -42 -3266 l-4 -2817 373 -6 c205 -3 832 -11 1393 -16 1602 -17
2034 -29 2230 -65 136 -25 361 -108 543 -199 763 -384 1337 -1118 1502 -1920
63 -309 79 -991 29 -1262 -25 -135 -98 -304 -194 -449 -143 -215 -393 -417
-649 -521 -156 -64 -198 -68 -691 -68 -385 -1 -450 1 -522 17 -128 27 -303
107 -453 206 -93 61 -282 242 -348 332 -157 216 -242 459 -242 692 l0 107
-1140 0 -1140 0 2 -407 3 -407 685 -253 c1725 -639 2865 -1075 3214 -1229 218
-97 433 -250 642 -459 324 -322 568 -708 727 -1146 88 -243 103 -332 117 -709
26 -732 21 -1704 -10 -1960 -50 -405 -242 -868 -503 -1219 -248 -333 -537
-586 -938 -822 l-142 -84 567 -3 c312 -1 819 -1 1126 0 l558 3 -131 141 c-165
176 -247 290 -338 468 l-71 138 -10 3412 c-10 3570 -6 6089 11 6386 6 96 16
209 22 250 30 203 154 421 358 633 112 117 236 208 404 302 l139 76 2991 2
c3171 2 3125 3 3296 -44 340 -92 758 -499 875 -851 36 -105 46 -247 46 -628 0
-492 -16 -610 -104 -794 -158 -328 -565 -681 -855 -742 -133 -27 -362 -34
-1561 -44 -668 -6 -1504 -13 -1857 -16 l-643 -6 0 -659 0 -659 1323 0 c727 0
1450 -5 1607 -10 560 -20 742 -60 935 -205 331 -248 509 -518 584 -885 69
-336 48 -790 -50 -1093 -41 -130 -137 -317 -213 -417 -187 -249 -473 -431
-758 -485 -155 -29 -481 -35 -1955 -35 l-1473 0 0 -659 0 -659 143 -6 c78 -3
743 -8 1477 -11 1422 -6 2153 -17 2315 -35 140 -16 205 -34 320 -90 286 -141
601 -483 696 -757 57 -164 73 -368 66 -817 -5 -345 -12 -402 -57 -522 -66
-177 -193 -367 -362 -540 -70 -72 -128 -134 -128 -138 0 -12 3823 0 4075 13
121 6 256 18 300 27 238 48 598 203 840 362 85 56 234 199 322 307 202 249
345 517 452 845 l71 215 0 8050 0 8051 -69 209 c-76 229 -119 336 -186 463
-202 380 -492 659 -896 863 -57 29 -197 89 -311 135 l-208 82 -6262 5 c-3445
3 -7037 2 -7983 -3z"/>
<path d="M10785 19889 c-247 -29 -434 -121 -628 -308 -258 -249 -377 -513
-377 -838 0 -325 123 -617 359 -854 182 -183 396 -292 654 -334 349 -57 733
71 992 330 166 167 274 370 327 618 17 81 22 137 22 277 1 170 0 177 -28 250
-41 107 -120 263 -178 347 -180 267 -449 461 -698 503 -91 15 -349 21 -445 9z"/>
<path d="M24170 19729 c-1455 -7 -1568 -12 -1683 -71 -114 -57 -245 -166 -277
-228 -41 -81 -63 -262 -81 -685 -8 -168 -13 -1722 -16 -4758 l-4 -4508 78
-131 c93 -157 177 -241 296 -301 95 -48 178 -65 375 -78 245 -16 3404 -23
4452 -10 1054 13 1198 19 1279 57 144 65 320 248 372 384 44 117 69 462 50
702 -20 252 -53 331 -195 473 -110 110 -228 177 -353 201 -159 30 -415 35
-2218 44 -1706 8 -2105 15 -2190 38 -37 10 -41 26 -56 207 -17 209 -24 1672
-9 1952 15 298 16 304 60 325 80 38 480 52 1985 68 1441 15 1874 29 2000 61
119 31 284 203 350 368 71 173 103 482 74 716 -32 263 -140 471 -309 598 -134
101 -128 101 -2140 117 -1525 13 -1940 26 -1977 63 -38 38 -56 450 -57 1277 0
822 16 1166 57 1207 6 7 62 17 122 23 175 17 1096 29 2220 30 1032 0 1833 12
2054 30 134 11 191 34 301 123 135 110 227 247 255 382 23 114 38 358 31 503
-22 424 -111 594 -399 760 l-126 72 -1523 -2 c-838 -1 -2097 -5 -2798 -9z"/>
<path d="M2405 19720 c-337 -9 -410 -20 -505 -73 -81 -46 -211 -176 -286 -287
l-65 -96 -10 -3756 c-10 -3703 -4 -5650 21 -5930 7 -89 15 -119 43 -181 49
-106 103 -182 189 -263 130 -124 220 -155 510 -175 342 -25 630 19 785 117 94
60 146 123 245 295 l55 95 6 1690 c6 1675 12 1970 42 2086 8 32 31 82 51 113
l37 55 1909 0 1910 0 107 57 c207 110 283 179 352 317 61 125 80 229 86 492 6
249 -5 380 -43 511 -60 208 -141 297 -391 431 l-113 60 -1747 5 c-1608 5
-2039 12 -2106 33 -62 20 -70 166 -69 1264 0 1164 5 1234 92 1252 93 19 827
30 2435 39 985 5 1797 13 1845 18 128 15 177 28 264 72 200 102 286 200 335
379 32 118 42 237 42 491 0 438 -33 553 -204 714 -98 93 -147 121 -233 135
-144 24 -568 31 -2334 40 -2088 10 -2867 10 -3255 0z"/>
<path d="M15785 19719 c-451 -7 -578 -16 -721 -54 -255 -67 -557 -226 -798
-419 -124 -101 -317 -302 -398 -416 -123 -174 -253 -451 -302 -647 -68 -268
-79 -493 -73 -1405 5 -762 10 -859 56 -1086 36 -174 126 -407 220 -566 73
-123 201 -278 370 -446 244 -243 364 -329 581 -418 321 -132 1203 -470 2210
-847 980 -367 1589 -608 1813 -715 113 -55 131 -90 147 -283 13 -153 12 -1080
0 -1249 -13 -162 -25 -208 -77 -288 l-38 -60 -1647 0 -1647 0 -29 43 c-79 115
-91 175 -102 497 -13 361 -38 450 -171 609 -71 84 -153 153 -229 191 -112 57
-214 71 -515 71 -461 1 -615 -50 -782 -259 -114 -143 -137 -219 -153 -498 -32
-580 11 -898 171 -1257 231 -519 661 -923 1204 -1132 199 -77 259 -88 560
-105 736 -41 2676 -41 3385 0 256 15 327 26 466 72 540 176 1019 598 1275
1121 180 369 204 555 204 1602 -1 871 -17 1089 -99 1340 -137 416 -412 806
-756 1072 -94 72 -183 126 -301 182 -190 89 -938 381 -2236 870 -1178 444
-1754 670 -1925 757 -55 28 -63 47 -78 184 -16 140 -24 1109 -11 1329 9 158
13 190 33 230 28 56 82 86 183 101 285 42 3055 34 3221 -9 63 -16 84 -116 109
-516 8 -137 22 -281 30 -320 39 -186 183 -349 375 -425 153 -60 416 -88 678
-71 192 13 278 26 341 53 104 44 261 185 334 299 79 124 100 257 100 624 0
375 -26 578 -103 808 -117 346 -338 677 -613 913 -170 146 -347 259 -627 397
l-245 121 -490 3 c-1079 7 -2503 8 -2900 2z"/>
<path d="M10690 17020 c-131 -10 -175 -22 -270 -71 -130 -67 -229 -165 -294
-288 -46 -88 -64 -167 -76 -338 -18 -255 -22 -1729 -12 -4325 l11 -2577 75
-109 c169 -245 315 -324 648 -353 212 -18 539 4 657 44 141 49 321 217 400
375 16 32 25 74 31 157 20 245 30 1344 30 3455 0 2111 -10 3210 -30 3455 -10
131 -19 153 -111 275 -70 92 -196 205 -273 244 -32 16 -88 31 -151 41 -120 18
-490 27 -635 15z"/>
<path d="M15302 13062 c4 -354 -1 -339 135 -455 217 -184 366 -383 458 -609
54 -133 76 -228 88 -395 l11 -153 1139 0 1140 0 -6 200 c-4 110 -10 290 -14
400 l-6 199 -66 25 c-36 14 -678 254 -1426 535 -748 280 -1382 519 -1408 530
l-48 21 3 -298z"/>
</g>
</svg>
